<?xml version="1.0" standalone="no"?>
<!DOCTYPE svg PUBLIC "-//W3C//DTD SVG 20010904//EN"
 "http://www.w3.org/TR/2001/REC-SVG-20010904/DTD/svg10.dtd">
<svg version="1.0" xmlns="http://www.w3.org/2000/svg"
 width="1280.000000pt" height="1280.000000pt" viewBox="0 0 1280.000000 1280.000000"
 preserveAspectRatio="xMidYMid meet">
<metadata>
Created by potrace 1.15, written by Peter Selinger 2001-2017
</metadata>
<g transform="translate(0.000000,1280.000000) scale(0.100000,-0.100000)"
fill="#ff9800" stroke="none">
<path d="M6300 12793 c-14 -2 -54 -13 -90 -24 -200 -63 -352 -215 -422 -424
l-23 -70 0 -755 0 -755 23 -70 c88 -264 307 -436 577 -452 310 -18 596 199
660 503 22 102 22 1446 0 1548 -62 291 -335 509 -630 504 -38 0 -81 -3 -95 -5z"/>
<path d="M2150 11087 c-226 -68 -395 -247 -446 -473 -21 -97 -15 -241 15 -334
45 -142 61 -161 601 -702 341 -341 525 -519 566 -545 259 -166 580 -129 799
91 127 128 185 267 185 446 -1 130 -29 229 -98 340 -42 69 -1002 1035 -1084
1091 -152 104 -362 138 -538 86z"/>
<path d="M10320 11095 c-30 -8 -93 -33 -140 -56 -84 -41 -89 -46 -611 -568
-480 -480 -529 -532 -563 -598 -198 -386 10 -836 429 -929 140 -31 301 -8 438
62 66 34 118 83 598 563 l527 526 45 95 c25 52 51 123 58 158 16 84 7 240 -20
322 -60 187 -223 351 -411 412 -83 26 -269 34 -350 13z"/>
<path d="M6215 8954 c-531 -52 -958 -213 -1365 -517 -123 -92 -395 -365 -487
-488 -486 -650 -641 -1458 -428 -2232 83 -305 229 -600 428 -866 92 -124 364
-396 488 -488 371 -277 766 -438 1239 -504 121 -17 516 -17 625 0 437 67 779
195 1102 411 1102 735 1461 2175 835 3344 -301 564 -827 1007 -1437 1212 -258
86 -476 123 -760 128 -110 2 -218 2 -240 0z m430 -1299 c249 -52 460 -163 641
-337 524 -506 524 -1330 0 -1836 -226 -218 -503 -339 -820 -359 -458 -28 -902
207 -1156 611 -274 435 -246 1011 68 1433 109 145 289 297 449 377 113 56 245
98 388 122 102 17 323 12 430 -11z"/>
<path d="M482 7020 c-177 -47 -332 -172 -411 -330 -55 -112 -75 -208 -67 -325
16 -265 186 -487 440 -573 l81 -27 750 0 750 0 75 23 c466 145 613 721 271
1063 -59 58 -97 86 -161 118 -146 71 -137 71 -940 70 -671 0 -720 -1 -788 -19z"/>
<path d="M10770 7030 c-127 -22 -243 -84 -340 -180 -76 -77 -121 -149 -157
-252 -22 -62 -26 -91 -27 -193 -1 -101 3 -131 22 -190 70 -210 217 -357 427
-427 l70 -23 755 0 755 0 70 23 c173 58 308 171 383 323 55 112 76 207 69 324
-10 162 -71 299 -187 415 -76 75 -148 120 -252 158 l-73 27 -735 1 c-404 1
-755 -2 -780 -6z"/>
<path d="M3075 3854 c-33 -8 -94 -31 -135 -51 -71 -35 -100 -61 -606 -567
-581 -581 -581 -580 -624 -740 -28 -102 -25 -266 8 -366 63 -191 226 -352 417
-413 100 -31 280 -31 380 0 147 47 162 60 711 608 530 529 557 559 602 685 63
174 54 337 -29 510 -76 160 -244 293 -419 334 -81 19 -225 19 -305 0z"/>
<path d="M9414 3851 c-123 -34 -210 -84 -299 -175 -126 -127 -185 -268 -185
-441 1 -109 20 -192 70 -294 42 -85 48 -92 549 -594 517 -520 573 -569 691
-615 123 -48 263 -56 394 -22 118 30 189 72 286 170 98 98 151 190 176 311 20
95 14 240 -15 329 -45 143 -60 160 -611 710 -550 551 -568 566 -710 611 -96
31 -254 35 -346 10z"/>
<path d="M6260 2545 c-230 -52 -421 -239 -480 -471 -19 -73 -20 -113 -20 -794
0 -681 1 -721 20 -794 30 -117 83 -209 170 -297 241 -242 617 -251 880 -21 68
60 144 177 177 275 l28 82 0 755 0 755 -28 82 c-66 195 -214 343 -409 409 -93
32 -243 40 -338 19z"/>
</g>
</svg>
